{"title":"Chick Magnet.2011.DVDrip.XviD","uid":6766425,"size":2140971539,"categoryP":"video","categoryS":"movies","magnet":"?xt=urn:btih:c8a0bbc082fe33fc408390d8a96f2652351155f4&amp;dn=Chick+Magnet.2011.DVDrip.XviD&amp;tr=udp%3A%2F%2Ftracker.openbittorrent.com%3A80&amp;tr=udp%3A%2F%2Fopen.demonii.com%3A1337&amp;tr=udp%3A%2F%2Ftracker.coppersurfer.tk%3A6969&amp;tr=udp%3A%2F%2Fexodus.desync.com%3A6969","seeders":0,"leechers":0,"uploader":"crazy-torrent","files":2,"time":1319401773,"description":"\n   _  _ _  _ _  _ \n   |  | |  | |  | \n   |/\\| |/\\| |/\\|,\n   ~  ~ ~  ~ ~  ~~\n                  \n   _, __,  _, ___,\n  / ` |_) /_\\ ` / \n  \\ , | \\ | |  /  \n   ~  ~ ~ ~ ~ ~~~ \n                  \n , _    ___  _, __,\n \\ |     |  / \\ |_)\n  \\| ~~  |  \\ / | \\\n   )     ~   ~  ~ ~\n  ~'               \n  __, __, _, _ ___ \n  |_) |_  |\\ |  |  \n  | \\ |   | \\|  | ,\n  ~ ~ ~~~ ~  ~  ~ ~\n                   \n     _,  _, _, _\n    / ` / \\ |\\/|\n    \\ , \\ / |  |\n     ~   ~  ~  ~\n\n Description\n\nGeneral\nComplete name: Chick Magnet.2011.DVDrip.XviD.avi\nFormat: AVI\nFormat/Info: Audio Video Interleave\nFormat profile: OpenDML\nFile size: 1.99 GiB\nDuration: 1h 28mn\nOverall bit rate: 3 237 Kbps\nWriting application: VirtualDubMod 1.5.4.1 (build 2178/release)\nWriting library: VirtualDubMod build 2178/release\n\nVideo\nID: 0\nFormat: MPEG-4 Visual\nFormat profile: Advanced Simple@L5\nFormat settings, BVOP: No\nFormat settings, QPel: No\nFormat settings, GMC: No warppoints\nFormat settings, Matrix: Custom\nCodec ID: XVID\nCodec ID/Hint: XviD\nDuration: 1h 28mn\nBit rate: 3 036 Kbps\nWidth: 720 pixels\nHeight: 416 pixels\nDisplay aspect ratio: 16:9\nFrame rate: 23.976 fps\nColor space: YUV\nChroma subsampling: 4:2:0\nBit depth: 8 bits\nScan type: Progressive\nBits/(Pixel*Frame): 0.423\nStream size: 1.87 GiB (94%)\nWriting library: XviD 1.2.0.dev47 (UTC 2006-11-01)\n\nAudio\nID: 1\nFormat: AC-3\nFormat/Info: Audio Coding 3\nMode extension: CM (complete main)\nCodec ID: 2000\nDuration: 1h 28mn\nBit rate mode: Constant\nBit rate: 192 Kbps\nChannel(s): 2 channels\nChannel positions: Front: L R\nSampling rate: 48.0 KHz\nBit depth: 16 bits\nStream size: 121 MiB (6%)\nAlignment: Split accross interleaves\nInterleave, duration: 96 ms (2.30 video frames)\nInterleave, preload duration: 96 ms\nLanguage: English \n\nCRAZY-TORRENT..COM","torrent":{"xt":"urn:btih:c8a0bbc082fe33fc408390d8a96f2652351155f4","amp;dn":"Chick+Magnet.2011.DVDrip.XviD","amp;tr":["udp%3A%2F%2Ftracker.openbittorrent.com%3A80","udp%3A%2F%2Fopen.demonii.com%3A1337","udp%3A%2F%2Ftracker.coppersurfer.tk%3A6969","udp%3A%2F%2Fexodus.desync.com%3A6969"],"infoHash":"c8a0bbc082fe33fc408390d8a96f2652351155f4","infoHashBuffer":{"type":"Buffer","data":[200,160,187,192,130,254,51,252,64,131,144,216,169,111,38,82,53,17,85,244]},"announce":[],"urlList":[]}}